<?xml version="1.0" standalone="no"?>
<!DOCTYPE svg PUBLIC "-//W3C//DTD SVG 20010904//EN"
 "http://www.w3.org/TR/2001/REC-SVG-20010904/DTD/svg10.dtd">
<svg version="1.0" xmlns="http://www.w3.org/2000/svg"
 width="1704.000000pt" height="321.000000pt" viewBox="0 0 1704.000000 321.000000"
 preserveAspectRatio="xMidYMid meet">
<g transform="translate(0.000000,321.000000) scale(0.100000,-0.100000)"
fill="#000000" stroke="none">
<path d="M635 3193 c-330 -70 -484 -381 -485 -978 -1 -272 -36 -427 -121 -536
-16 -20 -29 -42 -29 -48 0 -6 15 -34 34 -61 79 -115 104 -240 116 -590 15
-420 53 -584 175 -755 155 -218 461 -277 715 -139 61 33 159 134 190 194 67
131 86 238 94 537 7 227 19 324 52 418 14 39 27 77 30 87 10 30 -31 58 -83 58
-65 -1 -128 -31 -188 -91 l-51 -49 -34 36 c-48 49 -84 66 -141 66 -62 -1 -107
-25 -125 -67 -18 -44 -19 -42 15 -60 38 -19 77 -98 97 -200 25 -123 25 -449 0
-533 -30 -100 -94 -135 -183 -101 -112 42 -138 158 -130 588 6 366 26 473 112
612 19 31 35 63 35 71 0 7 -16 35 -35 63 -40 56 -68 138 -92 270 -13 69 -17
154 -17 370 -1 246 1 288 18 343 31 102 108 155 200 138 78 -15 109 -102 109
-306 0 -176 -23 -278 -109 -471 -27 -61 -41 -105 -37 -118 19 -72 190 -63 281
14 22 19 44 35 49 35 5 0 27 -19 48 -41 77 -80 202 -114 256 -70 l24 19 -19
49 c-55 139 -86 326 -86 520 0 131 -14 267 -35 348 -77 292 -339 445 -650 378z"/>
<path d="M1661 3170 c-45 -11 -85 -42 -89 -69 -2 -13 16 -50 46 -95 90 -134
112 -245 112 -554 0 -302 -28 -443 -111 -562 -22 -31 -39 -59 -39 -63 0 -4 20
-36 44 -71 88 -129 101 -209 101 -636 0 -287 -3 -347 -18 -420 -20 -91 -69
-208 -111 -263 -32 -42 -33 -67 -3 -95 95 -89 243 -37 338 118 7 12 13 10 31
-15 77 -102 138 -144 210 -145 56 0 116 28 134 61 14 28 13 32 -26 96 -102
169 -111 230 -117 801 l-5 462 110 0 c104 0 112 -2 141 -25 58 -49 81 -150
101 -445 30 -434 79 -631 181 -730 58 -57 111 -73 211 -68 98 5 169 33 238 95
l44 40 -45 51 c-86 96 -118 191 -143 427 -9 77 -22 207 -31 289 -20 189 -38
275 -74 351 -30 64 -88 128 -142 156 l-32 16 38 13 c96 32 156 132 180 302 17
120 34 174 76 239 l30 47 -39 61 c-43 66 -55 104 -72 230 -19 144 -69 239
-157 304 -86 62 -184 90 -368 102 -183 12 -322 -31 -390 -121 l-29 -39 -56 55
c-83 84 -183 121 -269 100z m743 -324 c18 -7 42 -26 54 -41 22 -27 22 -34 22
-357 0 -357 -1 -364 -56 -407 -35 -27 -106 -48 -194 -57 l-70 -7 0 397 c0 253
4 404 10 417 28 51 165 84 234 55z"/>
<path d="M3354 3170 c-52 -8 -92 -33 -100 -64 -4 -18 4 -36 32 -72 54 -71 94
-162 109 -251 20 -121 27 -325 16 -471 -15 -193 -43 -285 -112 -373 -36 -46
-36 -61 1 -107 71 -90 103 -217 115 -457 7 -144 -7 -337 -31 -429 -18 -70 -65
-166 -106 -219 -28 -35 -29 -40 -18 -68 24 -56 119 -83 194 -55 42 16 120 89
157 145 l15 24 27 -45 c51 -88 146 -145 224 -134 55 7 98 32 112 63 9 20 5 32
-29 82 -90 132 -118 243 -127 496 -10 294 20 459 104 583 24 34 43 67 43 73 0
6 -16 29 -35 52 -72 84 -102 214 -111 487 -11 303 16 440 112 581 57 84 58 94
17 131 -29 27 -106 40 -158 27 -49 -12 -113 -62 -156 -121 -27 -38 -28 -39
-39 -18 -21 39 -83 101 -119 119 -46 23 -86 29 -137 21z"/>
<path d="M4268 3171 c-46 -10 -85 -35 -93 -61 -5 -15 4 -32 30 -63 89 -103
122 -221 131 -462 11 -283 -21 -460 -105 -569 -23 -29 -41 -59 -41 -66 0 -7
14 -28 31 -48 84 -95 111 -219 113 -507 1 -285 -28 -421 -115 -537 -22 -29
-38 -59 -37 -67 8 -41 125 -78 190 -61 54 15 123 64 165 118 l39 49 38 -44
c75 -87 197 -125 396 -125 198 0 320 38 424 133 70 64 96 123 107 252 9 106
31 167 88 251 17 25 31 48 31 51 0 4 -22 41 -50 81 -49 74 -70 126 -70 175 0
88 -86 232 -159 265 -22 11 -41 22 -41 25 0 3 26 20 58 37 87 47 141 146 142
263 0 87 25 154 77 210 50 53 50 47 -13 129 -54 69 -69 113 -78 220 -18 236
-183 351 -506 353 -194 1 -313 -31 -397 -107 l-47 -43 -44 48 c-70 78 -176
118 -264 100z m782 -303 c35 -18 51 -35 70 -73 24 -48 25 -57 25 -250 0 -226
-10 -281 -68 -357 -51 -68 -101 -88 -224 -88 l-103 0 0 288 c0 351 6 392 58
445 60 60 163 75 242 35z m-84 -1053 c138 -57 183 -155 184 -395 l0 -115 -87
-153 -88 -153 -40 6 c-76 12 -128 45 -155 100 -25 50 -25 50 -28 394 l-3 344
89 -6 c49 -3 107 -13 128 -22z"/>
<path d="M6799 3170 c-15 -4 -56 -19 -92 -34 -40 -16 -85 -26 -115 -26 -48 0
-157 31 -176 50 -28 28 -71 -4 -82 -58 -8 -40 17 -110 50 -141 l24 -23 -33
-43 c-38 -51 -51 -103 -35 -151 19 -56 39 -59 93 -13 60 51 88 59 219 59 l108
0 7 -27 c15 -54 8 -413 -9 -489 -19 -82 -55 -158 -98 -207 -16 -19 -30 -40
-30 -47 0 -6 15 -30 34 -53 70 -87 90 -153 107 -342 26 -301 -16 -514 -128
-645 -29 -33 -32 -43 -23 -60 20 -37 70 -60 130 -60 91 0 182 54 221 132 l14
28 35 -47 c53 -71 108 -106 178 -111 68 -5 123 14 147 52 17 25 17 27 -17 64
-109 121 -146 276 -135 576 8 227 36 331 114 417 41 45 40 50 -22 127 -65 81
-96 240 -94 492 1 210 -9 195 135 195 109 0 123 -3 169 -27 28 -14 58 -35 69
-47 26 -28 52 -12 66 40 15 53 6 90 -35 144 l-34 43 21 19 c12 10 30 37 40 61
23 51 17 113 -13 143 -18 18 -20 17 -86 -14 -100 -46 -167 -48 -269 -7 -43 18
-95 32 -115 32 -46 1 -93 -27 -125 -74 l-26 -38 -30 41 c-17 23 -47 49 -71 60
-46 20 -50 21 -88 9z"/>
<path d="M7813 3171 c-39 -10 -82 -37 -90 -56 -3 -8 14 -37 40 -66 101 -115
122 -199 121 -479 -1 -178 -4 -216 -22 -284 -24 -86 -56 -147 -96 -185 -34
-32 -33 -46 9 -92 83 -92 109 -204 110 -464 0 -247 -25 -351 -114 -469 -36
-47 -46 -68 -40 -83 19 -52 152 -70 234 -32 25 12 65 43 89 70 l43 48 49 -51
c63 -65 112 -87 190 -88 47 0 69 5 95 23 45 30 47 49 10 96 -17 22 -45 69 -62
105 -47 101 -59 205 -59 529 l0 277 105 0 c57 0 114 -5 127 -11 63 -28 90
-118 113 -369 32 -359 68 -493 154 -583 55 -59 104 -80 197 -85 91 -5 170 13
242 54 23 14 42 20 42 14 0 -5 9 -19 20 -30 48 -48 185 -11 307 81 49 37 52
38 58 18 10 -29 63 -87 96 -105 15 -7 49 -14 75 -14 39 0 51 5 80 34 l35 35
-35 53 c-55 84 -69 149 -64 297 4 102 12 155 42 279 l38 152 165 -2 165 -3 46
-155 c45 -154 45 -156 46 -310 l1 -156 -38 -78 c-38 -76 -38 -78 -20 -98 31
-35 69 -48 139 -48 99 0 171 41 219 125 10 16 23 11 146 -54 144 -76 183 -85
239 -56 49 26 47 48 -10 113 -97 107 -187 287 -237 470 -23 85 -26 117 -27
257 -1 170 -4 158 50 233 16 22 15 24 -48 90 -95 98 -161 243 -205 452 -24
119 -25 369 0 462 17 61 17 69 3 97 -45 85 -248 43 -321 -67 l-25 -38 -67 66
c-76 74 -127 96 -197 85 -110 -17 -129 -47 -85 -132 73 -142 63 -235 -75 -723
l-93 -325 -39 2 c-21 2 -72 19 -113 39 -71 35 -75 36 -88 18 -7 -10 -13 -33
-13 -52 0 -28 9 -44 45 -80 42 -41 44 -46 28 -58 -10 -7 -21 -14 -26 -14 -13
0 -47 -64 -47 -91 0 -14 6 -34 14 -44 13 -18 16 -18 79 13 101 50 100 51 60
-90 -86 -312 -135 -425 -225 -523 -33 -36 -64 -65 -69 -65 -20 0 -78 64 -107
118 -43 81 -58 145 -82 355 -12 100 -25 209 -31 242 -26 154 -85 259 -173 305
-49 26 -58 40 -27 40 21 0 86 42 112 73 34 41 58 102 72 189 15 89 46 165 79
195 25 22 23 34 -13 79 -41 52 -57 93 -70 178 -36 247 -197 345 -569 349 -139
2 -162 0 -224 -22 -47 -16 -82 -36 -112 -66 l-45 -42 -37 34 c-78 72 -209 114
-289 94z m764 -277 c64 -31 64 -32 61 -334 l-3 -272 -37 -33 c-43 -40 -86 -54
-195 -62 l-83 -6 0 336 0 336 32 17 c73 38 167 45 225 18z m1598 -668 c30
-125 55 -231 55 -237 0 -5 -50 -9 -115 -9 -63 0 -115 3 -115 6 0 3 25 108 55
234 30 126 55 232 55 236 0 28 17 -31 65 -230z"/>
<path d="M11257 3170 c-105 -20 -116 -53 -49 -143 90 -118 112 -216 112 -494
0 -267 -23 -369 -105 -475 -25 -32 -45 -60 -45 -62 0 -2 16 -24 37 -48 85
-101 113 -225 113 -500 0 -258 -23 -355 -116 -485 -51 -72 -51 -93 -1 -124 23
-14 50 -19 98 -19 57 0 72 4 112 31 25 17 63 53 83 80 l36 50 16 -23 c29 -44
87 -100 124 -119 74 -38 202 -18 226 35 9 20 5 31 -30 77 -56 75 -94 158 -110
242 -20 111 -18 484 4 564 21 77 58 151 98 196 16 19 30 41 30 49 0 8 -15 29
-34 47 -75 73 -105 194 -113 456 -8 285 19 404 121 535 35 45 41 59 34 76 -16
35 -64 56 -132 57 -77 1 -126 -23 -190 -94 l-47 -52 -16 24 c-64 93 -160 138
-256 119z"/>
<path d="M12173 3171 c-44 -11 -80 -36 -88 -61 -5 -15 4 -32 30 -63 53 -62
103 -170 117 -257 19 -113 15 -476 -5 -568 -19 -83 -64 -176 -101 -211 -34
-32 -33 -56 4 -97 65 -75 93 -164 111 -354 6 -70 9 -183 6 -255 -9 -193 -45
-314 -121 -410 -48 -59 -49 -64 -31 -91 38 -58 138 -70 224 -28 44 22 97 76
137 142 1 2 54 -35 117 -82 62 -47 123 -86 135 -86 48 0 122 47 122 78 0 7
-16 33 -36 55 -88 104 -118 215 -129 488 -10 228 3 626 20 607 6 -7 116 -174
243 -371 l232 -357 -10 -93 c-18 -169 -44 -242 -114 -326 -20 -24 -36 -51 -36
-61 0 -31 55 -68 113 -75 85 -11 153 28 227 128 32 43 27 47 85 -63 50 -94 89
-120 181 -120 47 0 69 5 95 23 44 30 47 55 10 109 -38 57 -88 180 -108 266
-10 45 -16 146 -20 302 -7 334 18 460 114 578 25 30 33 48 27 57 -5 7 -26 34
-46 61 -76 99 -103 257 -95 561 6 249 24 315 119 440 22 29 38 60 36 70 -5 25
-60 59 -108 67 -76 12 -128 -10 -202 -86 -38 -37 -68 -64 -68 -59 0 18 -85
103 -124 123 -82 43 -215 21 -237 -39 -6 -18 0 -32 32 -70 49 -59 93 -149 111
-228 28 -128 12 -793 -22 -854 -5 -9 -34 32 -92 130 -381 646 -362 610 -359
661 5 111 46 212 118 290 41 43 45 51 35 73 -6 13 -24 30 -39 38 -99 50 -216
15 -293 -88 l-33 -44 -28 38 c-27 38 -73 78 -114 99 -30 15 -105 22 -142 13z"/>
<path d="M14011 3170 c-44 -11 -85 -42 -89 -68 -2 -11 16 -48 41 -85 98 -143
121 -264 114 -612 -6 -304 -25 -385 -116 -499 -17 -21 -31 -42 -31 -45 0 -4
18 -30 39 -59 46 -61 77 -147 97 -269 17 -108 19 -555 3 -652 -14 -82 -60
-172 -111 -215 -40 -35 -45 -51 -25 -77 40 -51 130 -66 221 -35 26 9 68 16 95
16 31 0 53 5 61 15 11 13 20 6 69 -44 100 -104 212 -140 339 -107 80 20 134
48 187 97 l42 39 37 -45 c72 -87 183 -126 259 -90 52 24 54 45 12 104 -57 80
-78 149 -83 279 -6 166 16 258 85 349 l25 32 -26 26 c-47 47 -174 26 -236 -40
l-23 -24 -18 24 c-48 61 -195 89 -239 45 -26 -26 -25 -34 9 -83 68 -100 86
-253 40 -344 -33 -64 -78 -88 -151 -78 -73 10 -102 42 -116 125 -10 54 -7 126
18 435 16 204 30 382 30 398 0 27 1 27 65 27 91 0 208 -26 282 -62 34 -16 66
-27 72 -24 5 4 13 26 16 50 8 52 -16 115 -60 159 l-28 28 31 32 c44 45 64 98
56 147 -9 55 -26 67 -60 41 -46 -36 -131 -61 -247 -71 -61 -5 -114 -6 -118 -2
-4 4 -20 176 -37 382 -29 357 -30 377 -14 410 21 44 61 63 132 63 107 0 150
-45 150 -157 0 -77 -21 -145 -63 -204 -25 -34 -29 -47 -21 -60 16 -25 54 -42
94 -42 41 0 127 38 154 68 l19 22 31 -27 c74 -62 170 -81 220 -42 32 26 33 49
2 78 -60 57 -93 211 -75 355 12 95 27 133 80 204 39 51 40 54 25 77 -19 29
-80 48 -127 39 -69 -14 -143 -66 -186 -131 l-15 -23 -42 41 c-80 81 -239 132
-340 109 -84 -19 -154 -65 -215 -143 l-30 -38 -25 39 c-66 106 -188 167 -285
142z"/>
<path d="M15505 3165 c-42 -15 -85 -56 -85 -81 0 -7 16 -36 35 -63 42 -58 82
-144 101 -214 23 -88 37 -311 31 -502 -9 -270 -35 -392 -112 -516 -19 -31 -35
-63 -35 -71 0 -8 12 -30 26 -49 38 -49 73 -131 89 -209 25 -118 38 -335 31
-510 -9 -255 -47 -409 -127 -530 -37 -55 -39 -61 -27 -86 24 -49 62 -69 133
-69 54 0 69 4 107 30 23 17 60 55 81 85 21 30 41 56 45 57 4 1 27 -26 50 -61
58 -85 120 -120 198 -114 89 8 147 69 114 121 -38 61 -81 160 -99 227 -33 123
-41 250 -41 635 l0 365 98 0 c82 0 102 -3 114 -17 59 -66 106 -320 133 -715
26 -378 61 -593 115 -698 32 -64 105 -137 156 -156 32 -12 64 -15 123 -12 95
6 168 37 237 104 l46 45 -41 44 c-105 114 -130 217 -176 740 -32 358 -121 692
-214 797 l-32 36 35 12 c20 6 55 33 80 61 54 60 82 138 96 265 13 113 34 186
71 247 16 26 29 53 29 60 0 7 -13 33 -28 58 -40 62 -60 128 -73 233 -29 253
-131 382 -342 435 -98 25 -277 35 -357 21 -103 -19 -192 -72 -226 -135 -10
-19 -21 -35 -24 -35 -3 0 -16 16 -29 36 -72 105 -211 164 -306 129z m765 -350
c15 -8 38 -30 49 -48 20 -33 21 -47 21 -368 0 -195 -4 -349 -10 -371 -22 -77
-102 -123 -237 -135 l-73 -6 0 435 0 435 23 21 c50 47 169 67 227 37z"/>
</g>
</svg>
