<svg width="65" height="65" xmlns="http://www.w3.org/2000/svg">
    <defs>
        <g id="circles" fill="darkslategrey">
            <circle cx="7" cy="50" r="2" />
            <circle cx="17" cy="50" r="2" />
            <circle cx="27" cy="50" r="2" />
        </g>

        <path id="sep" d="M 2 50 H32 z"/>
    </defs>

    <g stroke="black" stroke-width="2">
        <path fill="red"   d="M 2 50 a48,48 0 0,1 96,0 v52 h-96 v-52 z" />
        <path fill="white" d="M 12 50 a36,36 0 0,1 76,0 v52 h-76 v-52 z" />
        <path fill="blue"  d="M 22 50 a24,24 0 0,1 56,0 v52 h-56 v-52 z" />
        <path fill="tan"   d="M 32 50 a12,12 0 0,1 36,0 v52 h-36 v-52 z" />

        <use href="#sep"   y="10" />
        <use href="#sep"   transform="rotate(60, 50, 50)"/>
    </g>

    <use href="#circles" y="16"/>
    <use href="#circles" y="5"/>
    <use href="#circles" transform="rotate(5, 50, 50)"/>
    <use href="#circles" transform="rotate(19, 50, 50)"/>
    <use href="#circles" transform="rotate(35, 50, 50)"/>
    <use href="#circles" transform="rotate(51, 50, 50)"/>

    <use href="#circles" transform="rotate(69, 50, 50)"/>
    <use href="#circles" transform="rotate(85, 50, 50)"/>
    <use href="#circles" transform="rotate(101, 50, 50)"/>
    <use href="#circles" transform="rotate(117, 50, 50)"/>

</svg>
