<svg width="65" height="65" viewBox="0 0 65 65" xmlns="http://www.w3.org/2000/svg">
    <style>
        .arc { stroke: black; stroke-width: 2; }
        .dot-arc {
            fill: none;
            stroke: darkslategrey;
            stroke-width: 4;
            stroke-linecap: round;
            stroke-dasharray: 0 10;
        }
    </style>

    <g class="arc">
        <path fill="red"   d="M 2 50 a48,48 0 0,1 96,0 v52 h-96 v-52 z" />
        <path fill="white" d="M 12 50 a36,36 0 0,1 76,0 v52 h-76 v-52 z" />
        <path fill="blue"  d="M 22 50 a24,24 0 0,1 56,0 v52 h-56 v-52 z" />
        <path fill="tan"   d="M 32 50 a12,12 0 0,1 36,0 v52 h-36 v-52 z" />

        <path d="M 2 50 h30" transform="rotate(45, 50, 50)"/>
    </g>

    <g class="dot-arc">
        <path d="M 7 50 a42,42 0 0,1 86,0" pathLength="100"/> 
        <path d="M 17 50 a30,30 0 0,1 66,0" pathLength="100"/>
        <path d="M 27 50 a18,18 0 0,1 46,0" pathLength="100"/>
        <path d="M 7 60 v35 z" />
        <path d="M 17 60 v35 z" />
        <path d="M 27 60 v35 z" />
    </g>
</svg>
