<svg width="250" height="350" xmlns="http://www.w3.org/2000/svg">
    <defs>
        <pattern id="scallop-pattern" patternUnits="userSpaceOnUse" stroke="white" width="10" height="10">
            <path id="scallop" stroke-width="1" fill="none"
                d="M 0 0 C 0 0, 0 5, 5 5 S 10 0, 10 0"
            />
            <use href="#scallop" x="10" y="0"/>
            <use href="#scallop" x="-5" y="5"/>
            <use href="#scallop" x="5" y="5"/>
        </pattern>

        <pattern id="diamond-pattern" patternUnits="userSpaceOnUse" stroke="white" width="20" height="20">
            <path id="diamond" stroke-width="1" fill="none"
                d="M 3 0 C 3 0, 3 3, 1 3
                    S 3 3, 3 5
                    S 3 3, 5 3
                    S 3 3, 3 0 Z"
            />
            <use href="#diamond" x="11" y="11"/>
        </pattern>

        <rect id="innerBox" stroke="white" width="71.43%" height="80%" x="35.5" y="35" rx="10" ry="10"/>
        <g id="outer">
            <rect fill="white" width="100%" height="100%"/>
            <use href="#innerBox" fill="black"/>
        </g>

        <ellipse id="innerEllipse" stroke="white" rx="35.5%" ry="18.5%" cx="50%" cy="29%"/>
        <g id="inner">
            <use href="#innerBox" fill="white"/>
            <use href="#innerEllipse" fill="black"/>
            <use href="#innerEllipse" fill="black" transform-origin="center" transform="rotate(180)"/>
        </g>

        <g id="circles" fill="black">
          <use href="#innerEllipse" fill-opacity="0.1"/>
          <circle r="20.5%" cx="50%" cy="28.90%" fill-opacity="0.2"/>
          <circle r="12%" cx="50%" cy="36%" fill-opacity="0.3"/>
        </g>

        <mask id="mask_outer" maskUnits="userSpaceOnUse">
            <rect width="100%" height="100%"/>
            <use href="#outer"/>
        </mask>

        <mask id="mask_inner" maskUnits="userSpaceOnUse">
            <rect width="100%" height="100%"/>
            <use href="#inner"/>
        </mask>
    </defs>

    <rect width="100%" height="100%" mask="url(#mask_inner)" fill="url(#diamond-pattern)"/>
    <rect width="100%" height="100%" mask="url(#mask_outer)" fill="black" fill-opacity="0.2"/>
    <rect width="100%" height="100%" mask="url(#mask_outer)" fill="url(#scallop-pattern)" />
    <g stroke="white" stroke-linecap="round" stroke-width="1" fill="none">
        <use href="#innerBox"/>
        <rect width="100%" height="100%" stroke-width="25" rx="20" ry="20" />
        <circle r="2%" cx="50%" cy="50%" fill="white"/>
        <use href="#circles"/>
        <use href="#circles" transform-origin="center" transform="rotate(180)" />
    </g>
</svg>
