<?xml version="1.0" standalone="no"?>
<!DOCTYPE svg PUBLIC "-//W3C//DTD SVG 20010904//EN"
 "http://www.w3.org/TR/2001/REC-SVG-20010904/DTD/svg10.dtd">
<svg version="1.0" xmlns="http://www.w3.org/2000/svg"
 width="1310.000000pt" height="403.000000pt" viewBox="0 0 1310.000000 403.000000"
 preserveAspectRatio="xMidYMid meet">
<metadata>
Created by potrace 1.16, written by Peter Selinger 2001-2019
</metadata>
<g transform="translate(0.000000,403.000000) scale(0.100000,-0.100000)"
fill="#000000" stroke="none">
<path d="M484 3969 c-129 -49 -229 -194 -285 -412 -38 -149 -50 -268 -59 -597
-14 -462 -25 -544 -92 -692 l-31 -68 28 -61 c56 -126 76 -341 95 -1059 13
-450 40 -614 131 -797 80 -159 188 -238 329 -238 97 0 170 33 243 108 136 138
180 317 191 762 8 297 31 673 52 839 13 107 13 121 -1 142 -11 17 -25 24 -46
24 -55 0 -105 -38 -161 -123 l-26 -38 -21 35 c-31 50 -78 86 -111 86 -65 0
-133 -108 -95 -150 58 -64 101 -485 93 -915 -5 -258 -16 -318 -61 -350 -58
-41 -132 8 -162 106 -28 93 -37 381 -25 809 14 539 28 659 91 782 24 47 24 74
0 119 -53 98 -78 253 -92 570 -13 274 -2 514 26 608 22 73 61 111 112 111 48
0 76 -26 95 -90 18 -63 18 -439 -1 -540 -7 -41 -31 -135 -52 -208 -22 -73 -39
-147 -39 -166 0 -40 25 -65 72 -72 45 -8 82 12 137 71 24 26 44 45 45 43 76
-112 120 -148 179 -148 28 0 40 6 54 26 14 22 15 32 5 67 -46 158 -72 397 -72
655 0 415 -94 670 -280 756 -71 33 -188 35 -266 5z"/>
<path d="M1274 3955 c-28 -15 -54 -51 -54 -75 0 -5 14 -31 30 -57 75 -118 108
-335 97 -648 -8 -222 -27 -327 -77 -433 l-39 -82 34 -68 c53 -102 65 -165 75
-392 26 -577 4 -838 -85 -1016 -30 -58 -34 -75 -26 -96 14 -38 49 -58 101 -58
56 0 107 38 149 112 l28 49 26 -44 c14 -24 44 -60 66 -80 33 -30 49 -37 82
-37 53 0 93 22 109 59 10 26 9 35 -7 63 -29 49 -61 134 -80 213 -14 59 -17
155 -20 633 l-4 562 76 0 c92 0 111 -9 135 -63 28 -64 38 -139 55 -412 27
-436 60 -599 140 -693 40 -47 80 -65 146 -64 73 1 136 30 188 87 l40 44 -34
50 c-72 108 -95 215 -120 551 -20 282 -32 369 -62 463 -20 66 -33 88 -77 133
l-52 53 35 23 c72 47 103 130 130 347 7 55 21 107 41 150 l31 67 -24 44 c-35
63 -44 99 -61 233 -35 275 -143 378 -412 394 -79 5 -111 2 -151 -11 -58 -19
-123 -71 -145 -115 l-14 -30 -37 49 c-69 92 -163 131 -233 95z m612 -329 l34
-34 0 -327 c0 -362 -2 -376 -64 -414 -27 -17 -124 -41 -163 -41 -10 0 -13 75
-13 393 0 439 -5 409 70 441 59 26 98 20 136 -18z"/>
<path d="M2563 3955 c-40 -17 -63 -59 -45 -83 7 -9 28 -48 48 -86 56 -108 67
-177 68 -441 1 -301 -15 -398 -87 -504 l-30 -45 22 -35 c68 -110 88 -202 97
-435 11 -267 -22 -463 -96 -580 -28 -44 -30 -51 -19 -79 13 -32 60 -57 105
-57 43 0 94 39 134 102 l38 58 26 -44 c30 -51 86 -103 121 -112 56 -14 127 21
136 66 2 8 -11 40 -28 70 -72 126 -93 244 -93 516 0 255 23 382 85 476 32 48
31 59 -4 108 -57 79 -81 229 -81 511 0 235 13 312 75 434 25 50 45 97 45 106
0 9 -12 26 -26 40 -20 19 -36 24 -77 24 -64 0 -103 -25 -148 -95 l-32 -49 -27
42 c-62 96 -129 126 -207 92z"/>
<path d="M3263 3955 c-45 -19 -52 -54 -20 -97 65 -86 86 -158 97 -327 16 -244
-14 -450 -79 -536 -17 -22 -30 -44 -30 -50 0 -5 13 -28 30 -50 46 -61 69 -151
79 -310 17 -271 -16 -468 -97 -574 l-26 -34 31 -29 c65 -57 180 -25 248 69
l28 40 46 -47 c68 -70 121 -85 295 -85 176 1 231 19 315 104 64 64 78 101 90
230 6 70 14 97 49 163 l41 80 -19 26 c-38 55 -68 129 -75 184 -3 32 -11 70
-18 85 -22 51 -70 114 -100 133 l-30 18 31 18 c66 39 107 126 121 255 9 92 20
120 68 171 l25 27 -40 58 c-46 67 -59 103 -67 192 -8 89 -24 135 -62 179 -130
152 -507 164 -642 19 l-24 -25 -40 44 c-70 76 -152 101 -225 69z m622 -239
c22 -10 42 -29 57 -58 21 -40 23 -54 23 -213 0 -189 -14 -258 -61 -315 -41
-48 -74 -60 -164 -60 l-80 0 1 243 c0 133 4 264 8 290 17 100 118 153 216 113z
m-77 -881 c68 -20 116 -69 137 -137 23 -73 32 -309 15 -400 -10 -56 -19 -78
-45 -107 -32 -34 -37 -36 -94 -36 -72 1 -106 21 -136 81 -18 36 -20 63 -23
327 l-4 287 49 0 c27 0 73 -7 101 -15z"/>
<path d="M4902 3962 c-18 -12 -32 -62 -26 -90 4 -15 17 -41 30 -59 16 -21 20
-34 13 -39 -6 -3 -20 -26 -31 -51 -21 -47 -18 -92 8 -114 12 -10 21 -6 47 19
23 22 48 35 86 42 79 15 156 13 171 -5 9 -10 11 -63 8 -197 -5 -205 -15 -251
-74 -327 -19 -24 -34 -49 -34 -54 0 -5 15 -27 34 -48 55 -60 68 -118 73 -319
4 -139 2 -189 -11 -245 -18 -73 -50 -137 -85 -169 -44 -40 -10 -84 73 -93 58
-7 128 26 165 77 l27 37 36 -42 c60 -68 124 -89 197 -64 54 19 57 41 11 101
-68 90 -85 162 -85 368 0 155 3 184 23 248 15 48 35 86 58 112 l36 39 -31 38
c-65 82 -91 195 -91 398 0 141 0 141 69 149 75 9 150 -8 200 -44 36 -27 42
-28 56 -14 23 24 19 93 -9 134 l-23 35 23 35 c27 38 32 105 12 133 -12 16 -17
15 -73 -8 -78 -32 -139 -32 -217 1 -78 33 -114 27 -160 -24 l-33 -37 -33 37
c-47 52 -81 56 -166 22 -79 -31 -155 -30 -222 4 -22 11 -45 17 -52 14z"/>
<path d="M5982 3956 c-47 -22 -49 -39 -8 -89 56 -68 75 -123 87 -246 13 -132
0 -302 -29 -379 -11 -27 -34 -68 -52 -90 l-33 -41 27 -32 c59 -69 80 -139 91
-304 12 -173 -22 -330 -92 -422 -39 -51 -37 -67 8 -90 61 -32 163 -3 215 60
l30 36 26 -33 c53 -66 149 -93 223 -62 44 19 44 35 1 100 -65 99 -70 123 -74
414 l-4 262 90 0 c86 0 92 -1 111 -27 32 -40 48 -112 66 -292 22 -236 48 -336
102 -407 71 -94 244 -104 367 -23 l47 32 -33 27 c-41 34 -82 108 -97 175 -6
28 -20 124 -31 215 -30 253 -58 325 -149 378 l-45 26 30 8 c65 17 134 121 134
204 0 33 27 101 54 137 l25 32 -20 25 c-35 45 -49 78 -64 156 -22 115 -65 173
-165 218 -111 50 -365 60 -460 18 -25 -10 -57 -32 -72 -47 l-27 -27 -32 26
c-77 65 -182 91 -247 62z m628 -215 l25 -18 3 -212 c1 -140 -1 -219 -9 -232
-15 -30 -88 -59 -164 -66 l-65 -6 0 261 c0 293 -6 271 77 291 49 12 101 5 133
-18z"/>
<path d="M7634 3963 c-12 -2 -30 -13 -39 -23 -16 -18 -16 -22 8 -82 14 -35 28
-81 31 -103 9 -57 -15 -182 -84 -432 -86 -307 -77 -284 -108 -277 -15 3 -52
18 -84 34 -64 31 -78 26 -78 -27 0 -23 9 -41 33 -65 l32 -33 -32 -28 c-24 -22
-33 -37 -33 -61 0 -53 15 -58 77 -25 31 16 58 27 60 25 6 -6 -73 -284 -100
-349 -29 -72 -77 -144 -126 -192 -47 -45 -51 -68 -16 -91 45 -29 134 -3 219
65 37 29 41 30 49 14 21 -39 72 -83 104 -89 39 -7 84 9 101 36 10 17 8 26 -12
58 -72 108 -70 253 5 535 l10 37 124 0 124 0 11 -42 c6 -24 32 -106 58 -183
44 -132 46 -146 47 -250 0 -104 -2 -115 -31 -172 -34 -71 -31 -87 22 -109 73
-31 172 -4 214 57 13 19 25 36 26 38 2 2 22 -13 45 -32 55 -48 104 -70 164
-74 52 -4 90 10 108 39 9 13 1 27 -40 72 -161 176 -298 696 -215 814 12 16 22
35 22 42 0 6 -21 33 -47 58 -53 54 -91 130 -128 256 -41 145 -48 296 -20 477
7 42 5 48 -20 67 -52 41 -137 21 -207 -49 l-46 -46 -22 29 c-49 67 -126 97
-206 81z m221 -895 l7 -38 -91 0 c-68 0 -89 3 -86 13 2 6 23 93 46 192 l42
180 38 -155 c21 -85 41 -172 44 -192z"/>
<path d="M8630 3963 c-20 -8 -60 -44 -60 -56 0 -5 11 -23 25 -39 69 -82 93
-168 101 -358 10 -238 -17 -385 -87 -473 l-31 -39 21 -26 c68 -86 90 -167 98
-367 9 -221 -17 -354 -93 -467 l-35 -52 19 -25 c22 -30 78 -46 125 -37 34 6
85 47 125 101 18 23 25 27 29 15 13 -35 102 -109 139 -116 46 -8 111 12 130
41 11 18 8 27 -27 79 -21 32 -49 90 -62 130 -20 64 -22 91 -22 281 0 189 2
217 22 280 12 39 36 88 52 110 17 22 31 46 31 53 0 7 -13 30 -30 50 -58 73
-80 187 -80 416 0 205 25 312 93 392 34 40 34 69 2 90 -66 43 -167 19 -221
-54 -15 -20 -29 -39 -31 -41 -1 -2 -22 17 -45 44 -57 65 -127 90 -188 68z"/>
<path d="M9319 3947 c-19 -12 -35 -30 -37 -38 -1 -9 13 -39 32 -67 58 -87 76
-150 88 -314 9 -109 9 -181 0 -275 -14 -153 -30 -214 -78 -285 -34 -51 -35
-54 -21 -78 83 -132 99 -207 100 -470 2 -210 -7 -273 -50 -369 -13 -30 -35
-70 -48 -87 -32 -41 -31 -58 1 -83 76 -60 175 -25 242 87 l19 33 27 -45 c51
-88 133 -124 209 -93 47 20 58 57 30 96 -11 14 -31 47 -43 71 -50 98 -53 121
-57 525 -3 255 -1 377 6 370 5 -5 89 -148 185 -317 l176 -308 0 -70 c0 -124
-21 -360 -36 -402 -8 -23 -30 -63 -50 -91 -34 -48 -36 -53 -23 -76 28 -49 102
-66 158 -37 32 17 87 77 103 112 11 23 11 23 38 -20 57 -90 141 -125 214 -91
46 22 55 54 27 94 -12 16 -35 58 -51 93 -38 82 -50 208 -50 550 0 313 17 415
85 504 31 41 31 49 -1 92 -67 87 -88 217 -82 500 5 223 19 285 83 379 41 62
43 72 11 102 -57 53 -142 36 -214 -45 l-48 -54 -32 46 c-58 82 -170 108 -228
53 -30 -28 -30 -42 0 -82 67 -89 93 -185 102 -372 6 -128 -9 -487 -24 -555 -6
-27 -10 -32 -17 -20 -6 8 -83 157 -172 330 -124 240 -163 324 -163 352 0 89
40 200 95 267 35 40 28 73 -19 95 -70 33 -130 14 -197 -63 l-45 -51 -32 46
c-56 78 -148 105 -213 61z"/>
<path d="M10740 3952 c-57 -28 -60 -58 -17 -145 75 -149 81 -191 81 -552 1
-360 -5 -401 -70 -532 l-37 -73 36 -72 c61 -124 69 -184 74 -534 6 -403 -6
-484 -87 -586 -38 -46 -38 -67 0 -103 50 -48 141 -34 212 33 l27 25 11 -28
c49 -129 75 -177 114 -213 60 -55 82 -65 146 -66 74 0 143 32 202 95 46 49 47
49 59 28 25 -47 92 -109 129 -119 45 -12 95 2 111 32 9 16 5 32 -20 82 -48 95
-64 174 -64 311 0 136 20 236 59 303 24 41 25 45 10 67 -33 50 -107 41 -166
-20 l-34 -35 -31 34 c-34 37 -99 62 -137 53 -14 -4 -30 -18 -36 -33 -11 -22
-8 -34 18 -87 48 -99 57 -248 20 -342 -20 -52 -39 -65 -91 -65 -63 0 -98 29
-109 90 -5 27 1 226 16 510 13 256 24 471 24 479 0 11 15 13 73 8 81 -6 175
-37 202 -67 36 -40 55 -20 55 58 0 47 -36 142 -60 157 -8 5 -6 13 9 29 44 47
66 150 41 196 -9 18 -13 17 -60 -15 -27 -18 -72 -38 -100 -44 -58 -13 -160
-15 -160 -3 0 4 -9 147 -20 317 -27 415 -28 457 -7 489 39 59 149 55 188 -8
17 -26 20 -45 17 -126 -3 -82 -8 -104 -36 -163 -24 -53 -29 -73 -22 -88 29
-53 100 -48 165 12 42 39 44 39 54 20 15 -28 91 -71 125 -71 26 0 81 43 74 58
-2 4 -18 36 -36 72 -74 151 -65 399 19 532 29 45 30 48 15 77 -37 71 -149 42
-215 -57 l-34 -51 -46 49 c-50 53 -114 87 -184 96 -77 11 -150 -34 -219 -133
-16 -24 -31 -43 -33 -43 -2 0 -11 15 -20 34 -38 79 -119 146 -177 146 -12 0
-39 -8 -58 -18z"/>
<path d="M11898 3954 c-28 -15 -58 -61 -58 -88 0 -8 14 -45 31 -83 58 -129 79
-235 91 -481 9 -170 9 -272 0 -435 -13 -237 -34 -354 -82 -470 l-32 -77 35
-82 c47 -109 64 -209 78 -441 25 -423 -15 -797 -103 -971 -26 -50 -18 -96 23
-130 71 -60 153 -19 213 107 l33 71 21 -46 c47 -107 100 -158 163 -158 46 0
85 30 98 75 8 28 4 47 -20 110 -75 193 -89 332 -89 903 l0 432 75 0 c72 0 75
-1 89 -28 45 -86 82 -465 96 -957 5 -209 14 -438 20 -510 37 -470 111 -655
262 -655 87 0 152 40 209 129 l28 44 -19 27 c-99 139 -129 375 -150 1170 -17
626 -26 718 -84 845 -12 28 -39 68 -60 90 -21 22 -33 41 -27 43 29 10 63 49
91 105 31 63 46 143 70 361 6 59 22 134 40 184 l30 86 -24 51 c-32 70 -44 127
-61 295 -26 254 -90 387 -217 449 -108 53 -289 67 -365 27 -47 -24 -98 -78
-119 -125 -10 -23 -20 -41 -24 -41 -3 0 -14 17 -25 38 -28 53 -95 123 -132
138 -41 18 -71 17 -105 -2z m586 -395 c56 -44 56 -43 56 -486 0 -374 -2 -411
-19 -448 -30 -65 -78 -96 -173 -110 l-48 -7 0 499 0 500 23 20 c59 54 118 66
161 32z"/>
</g>
</svg>
